<svg id="Capa_1" data-name="Capa 1" xmlns="http://www.w3.org/2000/svg" viewBox="0 0 488 407.3">
  <title>billboard</title>
  <g>
    <path d="M395.6,217.2H-13.6A39.35,39.35,0,0,0-53,256.6V533.2a39.35,39.35,0,0,0,39.4,39.4H96.9v37.8A14.08,14.08,0,0,0,111,624.5H271a14.08,14.08,0,0,0,14.1-14.1V572.6H395.6A39.35,39.35,0,0,0,435,533.2V256.6A39.35,39.35,0,0,0,395.6,217.2ZM381.3,518.4H0.7V271H381.3V518.4h0Z" transform="translate(53 -217.2)" style="fill: #58585a"/>
    <path d="M263.6,406.4L149.8,472.1a9.68,9.68,0,0,1-14.5-8.4V332.3a9.71,9.71,0,0,1,14.5-8.4l113.8,65.7A9.67,9.67,0,0,1,263.6,406.4Z" transform="translate(53 -217.2)" style="fill: #58585a"/>
  </g>
</svg>
