<svg id="Слой_1" data-name="Слой 1" xmlns="http://www.w3.org/2000/svg" viewBox="0 0 51.9 52">
  <title>calendar</title>
  <path d="M-194.6,403.4V441h-41.9V403.4h41.9m5-5h-51.9V446h51.9V398.4h0Z" transform="translate(241.5 -394)" style="fill: #ee4538"/>
  <line x1="25.9" x2="25.9" y2="12.8" style="fill: none;stroke: #ee4538;stroke-miterlimit: 10;stroke-width: 5px"/>
  <line x1="38.9" x2="38.9" y2="12.8" style="fill: none;stroke: #ee4538;stroke-miterlimit: 10;stroke-width: 5px"/>
  <line x1="48.6" y1="39.3" x2="2.2" y2="39.3" style="fill: none;stroke: #ee4538;stroke-miterlimit: 10;stroke-width: 5px"/>
  <line x1="13.9" x2="13.9" y2="12.8" style="fill: none;stroke: #ee4538;stroke-miterlimit: 10;stroke-width: 5px"/>
  <g>
    <path d="M-216.8,421.3h0a4.55,4.55,0,0,1-1.3,3.6,5.59,5.59,0,0,1-3.8,1.2,5.35,5.35,0,0,1-4-1.5,5.51,5.51,0,0,1-1.5-4v-2.8a5.35,5.35,0,0,1,1.5-4,5.28,5.28,0,0,1,3.9-1.5,6,6,0,0,1,4,1.2,4.51,4.51,0,0,1,1.4,3.5v0.1h-3.1a3,3,0,0,0-.5-1.8,2.18,2.18,0,0,0-1.7-.5,1.7,1.7,0,0,0-1.6.9,4.84,4.84,0,0,0-.6,2.3v2.9a3.92,3.92,0,0,0,.6,2.3,2,2,0,0,0,1.8.9,2.54,2.54,0,0,0,1.6-.5,3,3,0,0,0,.5-1.8h2.8v-0.5h0Z" transform="translate(241.5 -394)" style="fill: #ee4538;stroke: #ee4538;stroke-miterlimit: 10;stroke-width: 0.5px"/>
    <path d="M-204.9,414.7h-5.9v2h1.8a5.58,5.58,0,0,1,3.9,1.3,4.13,4.13,0,0,1,1.5,3.3,4.27,4.27,0,0,1-1.5,3.3,5.58,5.58,0,0,1-3.9,1.3h-5V412.3h9.1v2.4h0Zm-6,4.5v4.2h1.9a2.11,2.11,0,0,0,1.6-.6,2,2,0,0,0,.6-1.5,2,2,0,0,0-.6-1.5,2.11,2.11,0,0,0-1.6-.6h-1.9Z" transform="translate(241.5 -394)" style="fill: #ee4538;stroke: #ee4538;stroke-miterlimit: 10;stroke-width: 0.5px"/>
  </g>
</svg>
