<svg viewBox="0 0 1538 490" xmlns="http://www.w3.org/2000/svg"><g fill="none" fill-rule="evenodd"><path d="M.768 131.07L0 388.86v4.532l783.933-130.977L784.717.09.767 131.07z" fill="#FF2D39"/><path d="M491.726 490.036l.784-262.325L1537.42 53.13l-.784 262.326-1044.91 174.58z" fill="#FF2D39"/><path d="M97.236 291.366l-.274-12.16 48.126-76.545-46.845 7.83-.205-14.21 66.778-11.16.156 12.32-48.028 76.26 50.414-8.41.088 14.36-70.21 11.73zM195.404 180l.303 37.53c4.82-6.09 12.308-11.556 20.5-12.924 15.837-2.65 26.17 7.292 26.316 22.748l.39 39.67-14.252 2.385-.37-38.74c0-10.59-6.03-14.2-14.21-12.83-7.92 1.33-14.65 8.15-18.34 14.46l.46 42.52-14.12 2.35-.78-94.83 14.11-2.37zm124.936 8.974l.546 65.028-12.405 2.073-.06-9.346c-4.37 7.09-12.18 13.15-21.42 14.7-16.1 2.69-26.84-7.19-27-22.76l-.37-39.56 14.13-2.37.37 38.75c.16 10.68 5.77 14.23 14.34 12.79 8.71-1.46 14.7-7.89 18.11-14.29l-.35-42.68 14.13-2.37zm78.234-13.07L375.69 211.89l25.28 28.73-15.173 2.53-21.3-24.38-10.56 1.76.187 27.92-14.126 2.356-.782-94.825 14.116-2.35.44 54.6 10.83-1.81 17.47-27.75 16.502-2.75zm39.7 46.953c12.013-2.004 20.41-11.82 20.38-24.977-.155-12.308-8.073-19.14-19.824-17.176-11.877 1.984-20.402 11.83-20.372 24.977.127 12.2 8.074 19.15 19.815 17.18m.978 13.14c-17.55 2.93-34.89-6.66-35.05-29.54-.15-22.1 16.11-35.94 33.53-38.86 17.3-2.88 35.03 6.63 35.06 29.55.3 22.08-16.37 35.98-33.53 38.85m107.49-84.84l-27.03 69.64-14.92 2.5-27.6-60.5 14.65-2.45 19.76 45.96 19.31-52.48 15.84-2.65zm60.24-16.03c.07 5.29 3.86 10.08 8.17 13.96 8.6-5.35 20.17-13.26 20.1-21.8.11-5.85-6.25-9-12.85-7.9-10.81 1.81-15.67 8.46-15.4 15.74zm12.14 58.06c7.66-1.27 14.39-4.83 19.62-10.05l-24.59-18.95c-6.96 4.69-14.33 10.93-14.18 19.06-.07 7.75 7.55 11.89 19.16 9.95zm54.45 1.9l-15.97 2.67-8.86-6.78c-7.46 7.34-17.51 12.96-29.91 15.04-19.92 3.34-33.41-5.95-33.46-20.87-.22-12.71 9.99-22.14 18.95-28.66-5.74-5.14-11.13-12.25-11.16-21.34-.1-13.68 11.78-25.29 28.02-28.01 14.38-2.39 28.01 5.22 28.06 18.51.14 13.83-13.81 23.75-24.36 31.2l21.24 16.66c3.06-6.06 4.77-12.86 4.41-19.85l14.12-2.36c.36 10.26-2.47 20.9-8.36 30.3l17.31 13.51zm-63.25 157.34l35.9-5.99-16.44-37.55c-.65-1.51-1.23-3.32-1.86-5.52-.42 2.38-.9 4.37-1.67 6.26l-15.91 42.81zm49.62 25.77l-8.35-19.1-46.45 7.76-8.02 21.83-16.35 2.74 38.27-101.36 16.63-2.77 39.72 88.33-15.43 2.58zm65.19-77.36l.12 14.5c-11.85-.32-21.37 6.96-24.96 17.06l.29 39.02-14.13 2.37-.54-65.02 12.54-2.09.12 10.42c4.35-8.86 12.66-15.13 26.59-16.23m71.47-10.59l-22.9 35.97 25.29 28.74-15.17 2.54-21.31-24.4-10.56 1.76.2 27.93-14.12 2.36-.79-94.82 14.12-2.37.44 54.6 10.82-1.81L780.09 293l16.508-2.76zM822.86 256l.302 37.53c4.82-6.1 12.312-11.556 20.49-12.924 15.842-2.65 26.19 7.292 26.32 22.748l.395 39.67-14.254 2.388-.37-38.75c0-10.57-6.03-14.18-14.213-12.81-7.92 1.32-14.65 8.147-18.34 14.47l.46 42.527-14.13 2.35-.784-94.83 14.117-2.37zm95.06 68.088c10.155-1.69 17.5-9.708 20.56-17.4l-.07-15.868c-2.866-6.58-10.09-11.614-19.59-10.02-11.75 1.965-20.385 11.956-20.356 25.114.157 12.317 8.36 20.03 19.45 18.173m-1.23 12.952c-19.14 3.2-32.18-10.76-32.382-29.86-.078-18.3 11.73-35.33 30.47-38.46 12.006-2.02 20.15 2.87 25.164 8.54l-.195-10.95 12.67-2.12.55 65.03-12.67 2.11.02-10.45c-4.57 7.55-12 14.22-23.62 16.15m89.78-83.64c15.57-2.6 25.78 7.36 25.91 22.68l.27 39.84-14.12 2.35-.36-38.74c-.02-10.72-6.03-14.19-14.21-12.83-7.92 1.33-14.76 8.31-18.37 14.34l.48 42.65-14.11 2.35-.55-65.02 12.55-2.09.07 9.33c5.3-7.26 13.24-13.34 22.48-14.88m73.86 43.55c10.168-1.69 17.548-9.44 20.647-16.87l.07-16.69c-3.11-6.41-10.305-11.31-19.807-9.73-11.75 1.96-20.394 11.95-20.335 25.23.14 12.2 8.34 19.91 19.427 18.05m1.64 42.33c-11.474 1.91-20.732.89-27.73-2.03l-.117-12.87c6.93 3.32 14.83 4.32 24.592 2.68 12.53-2.09 22.72-9.36 22.51-23.58l.066-7.73c-3.65 5.76-10.71 12.23-22.19 14.15-19.14 3.2-32.19-10.76-32.39-29.86-.066-18.3 11.87-35.35 30.47-38.46 11.617-1.95 19.516 2.29 24.94 8.72l.03-11.13 12.807-2.14.51 64.762c.31 23-15.67 34.49-33.49 37.47m81.22-99.99c-9.905 1.65-18.214 9.55-18.74 20.226l35.24-5.886c.673-6.48-2.915-16.62-16.5-14.34m-1.83-11.77c24.8-4.145 34.85 15.34 31.05 34.84l-47.78 7.98c1.81 11.63 13.474 14.016 23.895 12.276 8.32-1.384 15.66-4.5 20.96-8.51l.01 13.02c-5.37 3.62-12.895 6.49-22 8.02-17.82 2.98-36.91-5.77-37.25-28.91-.294-22.89 16.06-36.2 31.116-38.715m60.346-42.23l.78 98.9-14.12 2.37-.8-98.91 14.12-2.36zm40.97 25.31c8.98-1.5 17.29-.45 23.5 1.77l.18 12.45c-5.87-2.67-14.084-3.87-21.74-2.59-6.46 1.07-12.46 4.1-12.3 9.24.434 12.28 38.95.82 39.136 24.66.07 14.223-12.86 20.45-26.59 22.75-9.89 1.65-19.03.604-25.34-2.28l-.11-12.865c6.68 3.5 15.813 4.55 23.87 3.2 7.52-1.25 13.723-3.92 13.753-9.354-.246-12.02-38.577-1.14-39.23-24.495-.266-13.795 13-20.49 24.87-22.476m101.5-15.19l-22.89 35.97 25.29 28.75-15.18 2.53-21.3-24.39-10.56 1.76.186 27.92-14.13 2.36-.78-94.827 14.124-2.36.43 54.587 10.83-1.8 17.47-27.74 16.505-2.75zm58.44-9.77l15.962-2.67-28.96 79.18c-6.64 17.93-15.12 24.77-24.89 26.4-3.56.596-6.298.51-9.22.04l-.1-11.92c2.09.34 4.12.27 5.96-.04 7.39-1.24 11.77-7.53 15.77-18.5l1.776-3.97-30.294-59.5 14.52-2.42 21.89 45.72 17.58-52.32z" fill="#FFF"/></g></svg>