<svg id="Слой_1" data-name="Слой 1" xmlns="http://www.w3.org/2000/svg" viewBox="0 0 139.03 140.28">
  <title>logo_sf</title>
  <g>
    <path d="M56.79,56.48a72.36,72.36,0,0,1,8.69-1.19h5.88s17.38,4.44,18.94,4.94S98,63.17,98,63.17a9,9,0,0,1,5.87-2.69c3.37,0,6.12.25,6.12,0.25s2.5,1.62,3.56,2.44a8.14,8.14,0,0,0,6.25,1.5c3.31-.37,6.75-1.44,7.5-2.19s2.44-3.62,2.44-5.37,0.19-9.5.31-11.06,1.19-5.89,2.25-5.89H134a23.74,23.74,0,0,0-.81,4.58A44.6,44.6,0,0,0,135.54,56c1.5,4.12,1.69,5.12,1.75,6.5s0.25,3.12-1,4.75A53.08,53.08,0,0,1,128,74.61a23.27,23.27,0,0,1-5.25,2.19s5.44,7.06,7.06,9.81a54,54,0,0,1,3.37,5.87c0.63,1.56,3.53,11.25,4.17,12.94s2.45,4.75,2.83,5.5a3.81,3.81,0,0,1,0,2.13L138.6,116s-4.81,5.5-6.37,6.87S122,130,120.1,131s-2.94,2.06-3.87.56a6,6,0,0,1-.56-3c-0.06-2.31-1.06-6.62-4.31-8.44s-5.12-2.69-7.5-2.62-7.12.56-7.12,0.56a65.78,65.78,0,0,1-6.31,2.19,8.79,8.79,0,0,0-1.69.25,51.94,51.94,0,0,0-7.87,5.69,70.78,70.78,0,0,0-5.25,6.14s-3.69,6.24-4.94,8.24a24.87,24.87,0,0,1-3.25,3.94,18.77,18.77,0,0,1-4.62,3.62,18.42,18.42,0,0,1-4.69,1.31H56.79v-6.06a8.73,8.73,0,0,0,3.81-.12,11.46,11.46,0,0,0,6.69-4.87C70,134.61,75.35,127,77.54,124.67a36.13,36.13,0,0,1,7.63-6.06C86.54,118,93.72,115,97,114.67a95,95,0,0,1,10.06-.12,18.65,18.65,0,0,1,4.19,1.19c1.25,0.69,3.81,2,4.19,2.75s2,2.75,2.25,4.56,0.56,4.12.56,4.12l3.5-2.94s4.75-3.94,6.06-5.12,3.94-3.81,4.87-4.5a25.19,25.19,0,0,1,3.44-1.75s0.62-.56-0.19-1.81a52.5,52.5,0,0,1-3.37-7.75A59.74,59.74,0,0,0,130,95.73c-0.87-1.62-2.4-5.81-3.67-7.44s-2.45-2.94-2.45-2.94a46.89,46.89,0,0,0-2.62-4.62c-0.69-.81-5.19-4.62-5.19-4.62a1.6,1.6,0,0,1,1.62-1.75,22.54,22.54,0,0,0,7.62-2.19c2.13-1.25,5.19-3,5.5-3.37S133,66,133,66a7.15,7.15,0,0,0,1.06-2.37,13.87,13.87,0,0,0-1.06-3.5s-1.75,3.5-2.87,4.44-3.94,2.69-5.56,2.75-4.56.75-5.69,0.81a9.23,9.23,0,0,1-3.19-.12c-1.25-.31-6.31-2.31-7.44-2.75a11.94,11.94,0,0,0-2.81-.56s-2.75.94-4.25,1.62a15.08,15.08,0,0,0-2.12,1.12A18.49,18.49,0,0,0,94.16,65c-2.37-.62-10.94-3.37-18.62-3.81s-10-.83-12.87,0a42.75,42.75,0,0,0-5.87,2.17V56.48Z" transform="translate(-56.79 -40.16)" style="fill: #facf4b"/>
    <g>
      <path d="M113.12,148.05a4.25,4.25,0,0,1-1.6,3.5,7,7,0,0,1-4.45,1.28,10.46,10.46,0,0,1-4.65-1v-3.23a19.15,19.15,0,0,0,2.81,1,8.32,8.32,0,0,0,2.11.3,3,3,0,0,0,1.76-.44,1.5,1.5,0,0,0,.61-1.3,1.44,1.44,0,0,0-.27-0.86,3,3,0,0,0-.79-0.72,20.48,20.48,0,0,0-2.13-1.11,10.08,10.08,0,0,1-2.26-1.36,5.09,5.09,0,0,1-1.2-1.52,4.33,4.33,0,0,1-.45-2,4.24,4.24,0,0,1,1.48-3.43,6.14,6.14,0,0,1,4.08-1.25,9.63,9.63,0,0,1,2.44.3,16.79,16.79,0,0,1,2.43.85l-1.12,2.71a16.44,16.44,0,0,0-2.17-.75,7,7,0,0,0-1.69-.21,2.24,2.24,0,0,0-1.52.46,1.52,1.52,0,0,0-.53,1.2,1.49,1.49,0,0,0,.21.8,2.34,2.34,0,0,0,.68.66,21,21,0,0,0,2.21,1.15,8.78,8.78,0,0,1,3.16,2.21A4.31,4.31,0,0,1,113.12,148.05Z" transform="translate(-56.79 -40.16)" style="fill: #facf4b"/>
      <path d="M131.51,144.38a8.91,8.91,0,0,1-2,6.27,8.76,8.76,0,0,1-11.59,0,8.94,8.94,0,0,1-2-6.29q0-4.1,2-6.26a7.58,7.58,0,0,1,5.81-2.16,7.48,7.48,0,0,1,5.79,2.18A8.94,8.94,0,0,1,131.51,144.38Zm-12,0a6.86,6.86,0,0,0,1,4.14,3.65,3.65,0,0,0,3.12,1.39q4.17,0,4.17-5.54t-4.14-5.55a3.68,3.68,0,0,0-3.13,1.4A6.83,6.83,0,0,0,119.52,144.38Z" transform="translate(-56.79 -40.16)" style="fill: #facf4b"/>
      <path d="M142.39,138.86a3.55,3.55,0,0,0-3,1.48,6.87,6.87,0,0,0-1.08,4.12q0,5.49,4.12,5.49a13,13,0,0,0,4.19-.86V152a11.63,11.63,0,0,1-4.51.84,6.89,6.89,0,0,1-5.48-2.17,9.2,9.2,0,0,1-1.9-6.24,10.19,10.19,0,0,1,.93-4.49,6.73,6.73,0,0,1,2.68-3,7.92,7.92,0,0,1,4.09-1,11.05,11.05,0,0,1,4.81,1.16l-1.12,2.83a18.6,18.6,0,0,0-1.85-.76A5.52,5.52,0,0,0,142.39,138.86Z" transform="translate(-56.79 -40.16)" style="fill: #facf4b"/>
      <path d="M150.58,152.61V136.19h3.48v16.42h-3.48Z" transform="translate(-56.79 -40.16)" style="fill: #facf4b"/>
      <path d="M168.15,152.61H158.7V136.19h9.46V139h-6v3.6h5.56v2.85h-5.56v4.23h6v2.88Z" transform="translate(-56.79 -40.16)" style="fill: #facf4b"/>
      <path d="M178.42,152.61h-3.48V139.09h-4.46v-2.9h12.4v2.9h-4.46v13.52Z" transform="translate(-56.79 -40.16)" style="fill: #facf4b"/>
      <path d="M195.37,152.61h-9.46V136.19h9.46V139h-6v3.6H195v2.85h-5.56v4.23h6v2.88Z" transform="translate(-56.79 -40.16)" style="fill: #facf4b"/>
      <path d="M61.16,180.21H57.73V163.79h9.41v2.85h-6v4.23h5.57v2.84H61.16v6.49Z" transform="translate(-56.79 -40.16)" style="fill: #facf4b"/>
      <path d="M70.86,180.21V163.79h3.48v16.42H70.86Z" transform="translate(-56.79 -40.16)" style="fill: #facf4b"/>
      <path d="M93.55,180.21H89.12L82,167.79h-0.1q0.21,3.29.21,4.69v7.73H79V163.79h4.39l7.13,12.3h0.08q-0.17-3.2-.17-4.53v-7.77h3.13v16.42Z" transform="translate(-56.79 -40.16)" style="fill: #facf4b"/>
      <path d="M108.24,180.21L107,176.3h-6l-1.19,3.91H96.12l5.79-16.49h4.26L112,180.21h-3.75Zm-2-6.83q-1.65-5.31-1.86-6t-0.3-1.1q-0.37,1.44-2.12,7.11h4.28Z" transform="translate(-56.79 -40.16)" style="fill: #facf4b"/>
      <path d="M129.13,180.21H124.7l-7.14-12.42h-0.1q0.21,3.29.21,4.69v7.73h-3.11V163.79H119l7.13,12.3h0.08q-0.17-3.2-.17-4.53v-7.77h3.13v16.42Z" transform="translate(-56.79 -40.16)" style="fill: #facf4b"/>
      <path d="M140.74,166.46a3.55,3.55,0,0,0-3,1.48,6.87,6.87,0,0,0-1.08,4.12q0,5.49,4.12,5.49a13,13,0,0,0,4.19-.86v2.92a11.65,11.65,0,0,1-4.51.84,6.89,6.89,0,0,1-5.48-2.17A9.2,9.2,0,0,1,133,172a10.19,10.19,0,0,1,.93-4.49,6.73,6.73,0,0,1,2.68-3,7.92,7.92,0,0,1,4.09-1,11.05,11.05,0,0,1,4.81,1.16l-1.12,2.83a18.61,18.61,0,0,0-1.85-.76A5.52,5.52,0,0,0,140.74,166.46Z" transform="translate(-56.79 -40.16)" style="fill: #facf4b"/>
      <path d="M148.93,180.21V163.79h3.48v16.42h-3.48Z" transform="translate(-56.79 -40.16)" style="fill: #facf4b"/>
      <path d="M166.5,180.21H157V163.79h9.46v2.85h-6v3.6h5.56v2.85h-5.56v4.23h6v2.87Z" transform="translate(-56.79 -40.16)" style="fill: #facf4b"/>
      <path d="M173.91,173.91v6.3h-3.48V163.79h4.78a8.19,8.19,0,0,1,5,1.22,4.86,4.86,0,0,1,.81,6.28,5.27,5.27,0,0,1-2.26,1.77q3.71,5.54,4.83,7.15h-3.86l-3.92-6.3h-1.85Zm0-2.83H175a4.3,4.3,0,0,0,2.44-.55,2,2,0,0,0,.79-1.73,1.8,1.8,0,0,0-.8-1.66,4.87,4.87,0,0,0-2.49-.49h-1.06v4.44Z" transform="translate(-56.79 -40.16)" style="fill: #facf4b"/>
      <path d="M195.82,175.65a4.25,4.25,0,0,1-1.6,3.5,7,7,0,0,1-4.45,1.28,10.45,10.45,0,0,1-4.65-1v-3.23a19.27,19.27,0,0,0,2.81,1,8.36,8.36,0,0,0,2.11.3,3,3,0,0,0,1.76-.44,1.5,1.5,0,0,0,.61-1.3,1.44,1.44,0,0,0-.27-0.86,3,3,0,0,0-.79-0.72,20.31,20.31,0,0,0-2.13-1.11,10.14,10.14,0,0,1-2.26-1.36,5.1,5.1,0,0,1-1.2-1.52,4.33,4.33,0,0,1-.45-2,4.24,4.24,0,0,1,1.48-3.43,6.14,6.14,0,0,1,4.08-1.25,9.63,9.63,0,0,1,2.44.3,16.79,16.79,0,0,1,2.43.85l-1.12,2.71a16.44,16.44,0,0,0-2.17-.75,7,7,0,0,0-1.69-.21,2.24,2.24,0,0,0-1.52.46,1.52,1.52,0,0,0-.53,1.2,1.49,1.49,0,0,0,.21.8,2.34,2.34,0,0,0,.68.66,21,21,0,0,0,2.21,1.15,8.77,8.77,0,0,1,3.16,2.21A4.31,4.31,0,0,1,195.82,175.65Z" transform="translate(-56.79 -40.16)" style="fill: #facf4b"/>
    </g>
  </g>
</svg>
