<svg id="Слой_1" data-name="Слой 1" xmlns="http://www.w3.org/2000/svg" viewBox="0 0 66.9 62">
  <title>modular</title>
  <rect x="3" y="3" width="44.6" height="14.2" style="fill: none;stroke: #1cbcd4;stroke-miterlimit: 10;stroke-width: 6px"/>
  <path d="M-209.3,424.5l8.8,3.2,8.8,3.2-5.7,3.4,10.9,10.2-2.1,2.1-10.9-10.2-3.4,5.7-3.2-8.8-3.2-8.8m-7.8-7.8,3.4,9.4,3.2,8.8,3.2,8.8,3.4,9.3,5.1-8.5,0.5-.8,6.7,6.2,3.3,3.1,3.2-3.2,2.1-2.1,3.4-3.4-3.6-3.3-6.3-5.9,0.4-.2,8.5-5.1-9.3-3.4-8.8-3.2-8.8-3.2-9.6-3.3h0Z" transform="translate(246.5 -391)" style="fill: #1cbcd4"/>
  <g>
    <polygon points="31.3 37.8 5.8 37.8 5.8 29.2 28.3 29.2 26.4 23.6 0.2 23.6 0.2 43.4 33.2 43.4 31.3 37.8" style="fill: #1cbcd4"/>
    <polygon points="43.6 29.2 44.8 29.7 50.5 31.8 50.5 23.6 28.7 23.6 43.6 29.2" style="fill: #1cbcd4"/>
  </g>
</svg>
