<svg id="Слой_1" data-name="Слой 1" xmlns="http://www.w3.org/2000/svg" viewBox="0 0 53.6 36.4">
  <title>sections</title>
  <path d="M-223.1,407.9v5.7h-14.3v-5.7h14.3m5-5h-24.3v15.7h24.3V402.9h0Z" transform="translate(242.4 -402.9)" style="fill: #66499c"/>
  <path d="M-193.8,407.9v5.7h-14.3v-5.7h14.3m5-5h-24.3v15.7h24.3V402.9h0Z" transform="translate(242.4 -402.9)" style="fill: #66499c"/>
  <path d="M-223.1,428.6v5.7h-14.3v-5.7h14.3m5-5h-24.3v15.7h24.3V423.6h0Z" transform="translate(242.4 -402.9)" style="fill: #66499c"/>
  <path d="M-193.8,428.6v5.7h-14.3v-5.7h14.3m5-5h-24.3v15.7h24.3V423.6h0Z" transform="translate(242.4 -402.9)" style="fill: #66499c"/>
</svg>
