<svg id="Слой_1" data-name="Слой 1" xmlns="http://www.w3.org/2000/svg" viewBox="0 0 60.1 61.5">
  <title>smile</title>
  <path d="M38.3,11A22.32,22.32,0,0,1,60.6,33.3,22.76,22.76,0,0,1,54.2,49l4.1,8L47.2,53.8a21.83,21.83,0,0,1-8.9,1.9,22.35,22.35,0,0,1,0-44.7m0-6a28.25,28.25,0,1,0,.1,56.5A28.61,28.61,0,0,0,47.6,60l9.1,2.6,13.5,3.9L63.7,54l-2.3-4.4a28.38,28.38,0,0,0,5.3-16.4A28.47,28.47,0,0,0,38.3,5h0Z" transform="translate(-10.1 -5)" style="fill: #fdc012"/>
  <path d="M41,25.1a5.91,5.91,0,0,0-10.1-5.3Z" transform="translate(-10.1 -5)" style="fill: #fdc012"/>
  <path d="M24.1,30.5A14.46,14.46,0,0,0,48.7,43.6Z" transform="translate(-10.1 -5)" style="fill: #fdc012"/>
  <path d="M54,34.8a5.93,5.93,0,0,0-8.9-7.2Z" transform="translate(-10.1 -5)" style="fill: #fdc012"/>
</svg>
