<svg data-name="Capa 1" xmlns="http://www.w3.org/2000/svg" viewBox="0 0 488 407.3"><title>billboard</title><g fill="#58585a"><path d="M448.6 0H39.4A39.35 39.35 0 0 0 0 39.4V316a39.35 39.35 0 0 0 39.4 39.4h110.5v37.8a14.08 14.08 0 0 0 14.1 14.1h160a14.08 14.08 0 0 0 14.1-14.1v-37.8h110.5A39.35 39.35 0 0 0 488 316V39.4A39.35 39.35 0 0 0 448.6 0zm-14.3 301.2H53.7V53.8h380.6v247.4z"/><path d="M316.6 189.2l-113.8 65.7a9.68 9.68 0 0 1-14.5-8.4V115.1a9.71 9.71 0 0 1 14.5-8.4l113.8 65.7a9.67 9.67 0 0 1 0 16.8z"/></g></svg>