<svg xmlns="http://www.w3.org/2000/svg" viewBox="0 0 489.7 489.7" width="512" height="512"><path d="M454.9 189.1H294.4v-13.3c0-12.5-10.2-22.7-22.7-22.7h-10V120c0-28-22.8-50.9-50.9-50.9h-55c-9.4 0-17-7.6-17-17V0h-33.9v52.2c0 28.1 22.8 50.9 50.9 50.9h55c9.4 0 17 7.6 17 17v33.1h-10c-12.5 0-22.7 10.2-22.7 22.7v13.3H34.7c-14.9 0-26.9 12-26.9 26.9v246.7c0 14.9 12 26.9 26.9 26.9H455c14.9 0 26.9-12 26.9-26.9V216c-.1-14.9-12.1-26.9-27-26.9zm-150.8 56.5c0-3.7 3-6.7 6.7-6.7h27.4c3.7 0 6.7 3 6.7 6.7v27c0 3.7-3 6.7-6.7 6.7h-27.4c-3.7 0-6.7-3-6.7-6.7v-27zm.8 79.9v27c0 3.7-3 6.7-6.7 6.7h-27.4c-3.7 0-6.7-3-6.7-6.7v-27c0-3.7 3-6.7 6.7-6.7h27.4c3.7 0 6.7 3 6.7 6.7zm-80.4-79.9c0-3.7 3-6.7 6.7-6.7h27.4c3.7 0 6.7 3 6.7 6.7v27c0 3.7-3 6.7-6.7 6.7h-27.4c-3.7 0-6.7-3-6.7-6.7v-27zM191 318.8h27.4c3.7 0 6.7 3 6.7 6.7v27c0 3.7-3 6.7-6.7 6.7H191c-3.7 0-6.7-3-6.7-6.7v-27c0-3.7 3-6.7 6.7-6.7zm-46.3-73.2c0-3.7 3-6.7 6.7-6.7h27.4c3.7 0 6.7 3 6.7 6.7v27c0 3.7-3 6.7-6.7 6.7h-27.4c-3.7 0-6.7-3-6.7-6.7v-27zm-80.1 0c0-3.7 3-6.7 6.7-6.7h27.4c3.7 0 6.7 3 6.7 6.7v27c0 3.7-3 6.7-6.7 6.7H71.3c-3.7 0-6.7-3-6.7-6.7v-27zm40.8 187.5c0 3.7-3 6.7-6.7 6.7H71.3c-3.7 0-6.7-3-6.7-6.7v-27c0-3.7 3-6.7 6.7-6.7h27.4c3.7 0 6.7 3 6.7 6.7v27zm32.9-73.9h-27.4c-3.7 0-6.7-3-6.7-6.7v-27c0-3.7 3-6.7 6.7-6.7h27.4c3.7 0 6.7 3 6.7 6.7v27c0 3.7-3 6.7-6.7 6.7zm206.6 73.9c0 3.7-3 6.7-6.7 6.7H151.3c-3.7 0-6.7-3-6.7-6.7v-27c0-3.7 3-6.7 6.7-6.7h186.9c3.7 0 6.7 3 6.7 6.7v27zm33-73.9h-27.4c-3.7 0-6.7-3-6.7-6.7v-27c0-3.7 3-6.7 6.7-6.7h27.4c3.7 0 6.7 3 6.7 6.7v27c-.1 3.7-3 6.7-6.7 6.7zm47.1 73.9c0 3.7-3 6.7-6.7 6.7h-27.4c-3.7 0-6.7-3-6.7-6.7v-27c0-3.7 3-6.7 6.7-6.7h27.4c3.7 0 6.7 3 6.7 6.7v27zm0-160.5c0 3.7-3 6.7-6.7 6.7h-27.4c-3.7 0-6.7-3-6.7-6.7v-27c0-3.7 3-6.7 6.7-6.7h27.4c3.7 0 6.7 3 6.7 6.7v27z" fill="#58585a"/></svg>