<svg data-name="Слой 1" xmlns="http://www.w3.org/2000/svg" viewBox="0 0 139.03 140.28"><path d="M0 16.32a72.36 72.36 0 0 1 8.69-1.19h5.88s17.38 4.44 18.94 4.94 7.7 2.94 7.7 2.94a9 9 0 0 1 5.87-2.69c3.37 0 6.12.25 6.12.25s2.5 1.62 3.56 2.44a8.14 8.14 0 0 0 6.25 1.5c3.31-.37 6.75-1.44 7.5-2.19s2.44-3.62 2.44-5.37.19-9.5.31-11.06S74.45 0 75.51 0h1.7a23.74 23.74 0 0 0-.81 4.58 44.6 44.6 0 0 0 2.35 11.26c1.5 4.12 1.69 5.12 1.75 6.5s.25 3.12-1 4.75a53.08 53.08 0 0 1-8.29 7.36 23.27 23.27 0 0 1-5.25 2.19s5.44 7.06 7.06 9.81a54 54 0 0 1 3.37 5.87c.63 1.56 3.53 11.25 4.17 12.94s2.45 4.75 2.83 5.5a3.81 3.81 0 0 1 0 2.13l-1.58 2.95s-4.81 5.5-6.37 6.87-10.23 7.13-12.13 8.13-2.94 2.06-3.87.56a6 6 0 0 1-.56-3c-.06-2.31-1.06-6.62-4.31-8.44s-5.12-2.69-7.5-2.62-7.12.56-7.12.56a65.78 65.78 0 0 1-6.31 2.19 8.79 8.79 0 0 0-1.69.25 51.94 51.94 0 0 0-7.87 5.69 70.78 70.78 0 0 0-5.25 6.14s-3.69 6.24-4.94 8.24a24.87 24.87 0 0 1-3.25 3.94 18.77 18.77 0 0 1-4.62 3.62 18.42 18.42 0 0 1-4.69 1.31H0v-6.06a8.73 8.73 0 0 0 3.81-.12 11.46 11.46 0 0 0 6.69-4.87c2.71-3.78 8.06-11.39 10.25-13.72a36.13 36.13 0 0 1 7.63-6.06c1.37-.61 8.55-3.61 11.83-3.94a95 95 0 0 1 10.06-.12 18.65 18.65 0 0 1 4.19 1.19c1.25.69 3.81 2 4.19 2.75s2 2.75 2.25 4.56.56 4.12.56 4.12l3.5-2.94s4.75-3.94 6.06-5.12 3.94-3.81 4.87-4.5a25.19 25.19 0 0 1 3.44-1.75s.62-.56-.19-1.81a52.5 52.5 0 0 1-3.37-7.75 59.74 59.74 0 0 0-2.56-7.57c-.87-1.62-2.4-5.81-3.67-7.44s-2.45-2.94-2.45-2.94a46.89 46.89 0 0 0-2.62-4.62c-.69-.81-5.19-4.62-5.19-4.62a1.6 1.6 0 0 1 1.62-1.75 22.54 22.54 0 0 0 7.62-2.19c2.13-1.25 5.19-3 5.5-3.37s2.19-2.8 2.19-2.8a7.15 7.15 0 0 0 1.06-2.37 13.87 13.87 0 0 0-1.06-3.5s-1.75 3.5-2.87 4.44-3.94 2.69-5.56 2.75-4.56.75-5.69.81a9.23 9.23 0 0 1-3.19-.12c-1.25-.31-6.31-2.31-7.44-2.75a11.94 11.94 0 0 0-2.81-.56s-2.75.94-4.25 1.62a15.08 15.08 0 0 0-2.12 1.12 18.49 18.49 0 0 0-4.91-2.44c-2.37-.62-10.94-3.37-18.62-3.81s-10-.83-12.87 0A42.75 42.75 0 0 0 .01 23.2v-6.88zm56.33 91.57a4.25 4.25 0 0 1-1.6 3.5 7 7 0 0 1-4.45 1.28 10.46 10.46 0 0 1-4.65-1v-3.23a19.15 19.15 0 0 0 2.81 1 8.32 8.32 0 0 0 2.11.3 3 3 0 0 0 1.76-.44 1.5 1.5 0 0 0 .61-1.3 1.44 1.44 0 0 0-.27-.86 3 3 0 0 0-.79-.72 20.48 20.48 0 0 0-2.13-1.11 10.08 10.08 0 0 1-2.26-1.36 5.09 5.09 0 0 1-1.2-1.52 4.33 4.33 0 0 1-.45-2A4.24 4.24 0 0 1 47.3 97a6.14 6.14 0 0 1 4.08-1.25 9.63 9.63 0 0 1 2.44.3 16.79 16.79 0 0 1 2.43.85l-1.12 2.71a16.44 16.44 0 0 0-2.17-.75 7 7 0 0 0-1.69-.21 2.24 2.24 0 0 0-1.52.46 1.52 1.52 0 0 0-.53 1.2 1.49 1.49 0 0 0 .21.8 2.34 2.34 0 0 0 .68.66 21 21 0 0 0 2.21 1.15 8.78 8.78 0 0 1 3.16 2.21 4.31 4.31 0 0 1 .85 2.76zm18.39-3.67a8.91 8.91 0 0 1-2 6.27 8.76 8.76 0 0 1-11.59 0 8.94 8.94 0 0 1-2-6.29q0-4.1 2-6.26a7.58 7.58 0 0 1 5.81-2.16 7.48 7.48 0 0 1 5.79 2.18 8.94 8.94 0 0 1 1.99 6.26zm-12 0a6.86 6.86 0 0 0 1 4.14 3.65 3.65 0 0 0 3.12 1.39q4.17 0 4.17-5.54t-4.14-5.55a3.68 3.68 0 0 0-3.13 1.4 6.83 6.83 0 0 0-1.01 4.16zM85.6 98.7a3.55 3.55 0 0 0-3 1.48 6.87 6.87 0 0 0-1.08 4.12q0 5.49 4.12 5.49a13 13 0 0 0 4.19-.86v2.91a11.63 11.63 0 0 1-4.51.84 6.89 6.89 0 0 1-5.48-2.17 9.2 9.2 0 0 1-1.9-6.24 10.19 10.19 0 0 1 .93-4.49 6.73 6.73 0 0 1 2.68-3 7.92 7.92 0 0 1 4.09-1 11.05 11.05 0 0 1 4.81 1.16l-1.12 2.83a18.6 18.6 0 0 0-1.85-.76 5.52 5.52 0 0 0-1.88-.31zm8.19 13.75V96.03h3.48v16.42h-3.48zm17.57 0h-9.45V96.03h9.46v2.81h-6v3.6h5.56v2.85h-5.56v4.23h6v2.88zm10.27 0h-3.48V98.93h-4.46v-2.9h12.4v2.9h-4.46v13.52zm16.95 0h-9.46V96.03h9.46v2.81h-6v3.6h5.63v2.85h-5.56v4.23h6v2.88zM4.37 140.05H.94v-16.42h9.41v2.85h-6v4.23h5.57v2.84H4.37v6.49zm9.7 0v-16.42h3.48v16.42h-3.48zm22.69 0h-4.43l-7.12-12.42h-.1q.21 3.29.21 4.69v7.73h-3.11v-16.42h4.39l7.13 12.3h.08q-.17-3.2-.17-4.53v-7.77h3.13v16.42zm14.69 0l-1.24-3.91h-6l-1.19 3.91h-3.69l5.79-16.49h4.26l5.83 16.49h-3.75zm-2-6.83q-1.65-5.31-1.86-6t-.3-1.1q-.37 1.44-2.12 7.11h4.28zm22.89 6.83h-4.43l-7.14-12.42h-.1q.21 3.29.21 4.69v7.73h-3.11v-16.42h4.44l7.13 12.3h.08q-.17-3.2-.17-4.53v-7.77h3.13v16.42zm11.61-13.75a3.55 3.55 0 0 0-3 1.48 6.87 6.87 0 0 0-1.08 4.12q0 5.49 4.12 5.49a13 13 0 0 0 4.19-.86v2.92a11.65 11.65 0 0 1-4.51.84 6.89 6.89 0 0 1-5.48-2.17 9.2 9.2 0 0 1-1.98-6.28 10.19 10.19 0 0 1 .93-4.49 6.73 6.73 0 0 1 2.68-3 7.92 7.92 0 0 1 4.09-1 11.05 11.05 0 0 1 4.81 1.16l-1.12 2.83a18.61 18.61 0 0 0-1.85-.76 5.52 5.52 0 0 0-1.8-.28zm8.19 13.75v-16.42h3.48v16.42h-3.48zm17.57 0h-9.5v-16.42h9.46v2.85h-6v3.6h5.56v2.85h-5.56v4.23h6v2.87zm7.41-6.3v6.3h-3.48v-16.42h4.78a8.19 8.19 0 0 1 5 1.22 4.86 4.86 0 0 1 .81 6.28 5.27 5.27 0 0 1-2.26 1.77q3.71 5.54 4.83 7.15h-3.86l-3.92-6.3h-1.85zm0-2.83h1.09a4.3 4.3 0 0 0 2.44-.55 2 2 0 0 0 .79-1.73 1.8 1.8 0 0 0-.8-1.66 4.87 4.87 0 0 0-2.49-.49h-1.06v4.44zm21.91 4.57a4.25 4.25 0 0 1-1.6 3.5 7 7 0 0 1-4.45 1.28 10.45 10.45 0 0 1-4.65-1v-3.23a19.27 19.27 0 0 0 2.81 1 8.36 8.36 0 0 0 2.11.3 3 3 0 0 0 1.76-.44 1.5 1.5 0 0 0 .61-1.3 1.44 1.44 0 0 0-.27-.86 3 3 0 0 0-.79-.72 20.31 20.31 0 0 0-2.13-1.11 10.14 10.14 0 0 1-2.26-1.36 5.1 5.1 0 0 1-1.2-1.52 4.33 4.33 0 0 1-.45-2 4.24 4.24 0 0 1 1.48-3.43 6.14 6.14 0 0 1 4.08-1.25 9.63 9.63 0 0 1 2.44.3 16.79 16.79 0 0 1 2.43.85l-1.12 2.71a16.44 16.44 0 0 0-2.17-.75 7 7 0 0 0-1.69-.21 2.24 2.24 0 0 0-1.52.46 1.52 1.52 0 0 0-.53 1.2 1.49 1.49 0 0 0 .21.8 2.34 2.34 0 0 0 .68.66 21 21 0 0 0 2.21 1.15 8.77 8.77 0 0 1 3.16 2.21 4.31 4.31 0 0 1 .85 2.76z" fill="#facf4b"/></svg>