<svg data-name="Слой 1" xmlns="http://www.w3.org/2000/svg" viewBox="0 0 66.9 62"><title>modular</title><path fill="none" stroke="#1cbcd4" stroke-miterlimit="10" stroke-width="6" d="M3 3h44.6v14.2H3z"/><path d="M37.2 33.5l8.8 3.2 8.8 3.2-5.7 3.4L60 53.5l-2.1 2.1L47 45.4l-3.4 5.7-3.2-8.8-3.2-8.8m-7.8-7.8l3.4 9.4 3.2 8.8 3.2 8.8 3.4 9.3 5.1-8.5.5-.8 6.7 6.2 3.3 3.1 3.2-3.2 2.1-2.1 3.4-3.4-3.6-3.3-6.3-5.9.4-.2 8.5-5.1-9.3-3.4-8.8-3.2L39 29l-9.6-3.3z" fill="#1cbcd4"/><g fill="#1cbcd4"><path d="M31.3 37.8H5.8v-8.6h22.5l-1.9-5.6H.2v19.8h33l-1.9-5.6M43.6 29.2l1.2.5 5.7 2.1v-8.2H28.7l14.9 5.6"/></g></svg>