<svg data-name="Слой 1" xmlns="http://www.w3.org/2000/svg" viewBox="0 0 65.6 58.9"><title>quotes</title><g fill="#d7d7d7"><path d="M.4 55a71.93 71.93 0 0 0 12.8-11.9c3-3.8 4.5-7.1 4.5-10.1a6.05 6.05 0 0 0-1.6-4.5 13.12 13.12 0 0 0-5.6-2.9 13.71 13.71 0 0 1-7.8-4.9A13.7 13.7 0 0 1 0 12.2a11.57 11.57 0 0 1 3.7-8.7A12.75 12.75 0 0 1 12.9 0a15.57 15.57 0 0 1 12.3 5.6c3.1 3.7 4.7 8.5 4.7 14.3 0 6.2-2.2 12.6-6.5 19.3s-10.7 13.3-19 19.7zM36.1 55a71.93 71.93 0 0 0 12.8-11.9c3-3.8 4.5-7.1 4.5-10.1a6.05 6.05 0 0 0-1.6-4.5 13.12 13.12 0 0 0-5.6-2.9 13.71 13.71 0 0 1-7.8-4.9 13.7 13.7 0 0 1-2.7-8.5 11.57 11.57 0 0 1 3.7-8.7A12.75 12.75 0 0 1 48.6 0a15.57 15.57 0 0 1 12.3 5.6c3.1 3.7 4.7 8.5 4.7 14.3 0 6.2-2.2 12.6-6.5 19.3s-10.7 13.3-19 19.7z"/></g></svg>