<svg data-name="Слой 1" xmlns="http://www.w3.org/2000/svg" viewBox="0 0 60.1 61.5"><title>smile</title><path d="M28.2 6a22.32 22.32 0 0 1 22.3 22.3A22.76 22.76 0 0 1 44.1 44l4.1 8-11.1-3.2a21.83 21.83 0 0 1-8.9 1.9 22.35 22.35 0 0 1 0-44.7m0-6a28.25 28.25 0 1 0 .1 56.5 28.61 28.61 0 0 0 9.2-1.5l9.1 2.6 13.5 3.9L53.6 49l-2.3-4.4a28.38 28.38 0 0 0 5.3-16.4A28.47 28.47 0 0 0 28.2 0z" fill="#fdc012"/><path d="M30.9 20.1a5.91 5.91 0 0 0-10.1-5.3zM14 25.5a14.46 14.46 0 0 0 24.6 13.1zM43.9 29.8a5.93 5.93 0 0 0-8.9-7.2z" fill="#fdc012"/></svg>